<?xml version="1.0" encoding="UTF-8" standalone="no"?>
<!DOCTYPE svg PUBLIC "-//W3C//DTD SVG 1.1//EN" "http://www.w3.org/Graphics/SVG/1.1/DTD/svg11.dtd">
<svg width="100%" height="100%" viewBox="0 0 126 163" version="1.1" xmlns="http://www.w3.org/2000/svg" xmlns:xlink="http://www.w3.org/1999/xlink" xml:space="preserve" xmlns:serif="http://www.serif.com/" style="fill-rule:evenodd;clip-rule:evenodd;stroke-linecap:round;stroke-linejoin:round;stroke-miterlimit:1.5;">
    <g transform="matrix(1,0,0,1,-80.2259,-55.9843)">
        <g transform="matrix(1,0,0,1,-16.1436,-4.26136)">
            <g transform="matrix(0.439841,0,0,0.439841,-15.93,8.78116)">
                <path d="M474.664,121.554L259.865,121.554L259.865,482.9L534.75,482.9L536.092,186.984" style="fill:none;stroke:rgb(79,70,229);stroke-width:9.09px;"/>
            </g>
        </g>
        <g transform="matrix(1,0,0,1,-16.1436,-4.26136)">
            <g transform="matrix(-0.276188,-0.301171,0.300144,-0.275246,242.801,270.664)">
                <path d="M409.728,181.931L457.647,256.371L362.203,257.468L409.728,181.931Z" style="fill:none;stroke:rgb(79,70,229);stroke-width:9.81px;"/>
            </g>
        </g>
        <g transform="matrix(1,0,0,1,-16.1436,-4.26136)">
            <g transform="matrix(4.31798,0,0,4.57414,-1056.17,-1353.72)">
                <text x="274.612px" y="329.407px" style="font-family:'Helvetica-Light', 'Helvetica', sans-serif;font-weight:300;font-size:6.923px;fill:rgb(79,70,229);">SVG</text>
            </g>
        </g>
    </g>
</svg>
