<?xml version="1.0" encoding="UTF-8" standalone="no"?>
<!DOCTYPE svg PUBLIC "-//W3C//DTD SVG 1.1//EN" "http://www.w3.org/Graphics/SVG/1.1/DTD/svg11.dtd">
<svg width="100%" height="100%" viewBox="0 0 231 163" version="1.1" xmlns="http://www.w3.org/2000/svg" xmlns:xlink="http://www.w3.org/1999/xlink" xml:space="preserve" xmlns:serif="http://www.serif.com/" style="fill-rule:evenodd;clip-rule:evenodd;stroke-linecap:round;stroke-linejoin:round;stroke-miterlimit:1.5;">
    <g transform="matrix(1,0,0,1,-532.289,-56.0075)">
        <g transform="matrix(1.1014,0,0,1.1014,415.802,-293.664)">
            <path d="M248.5,319.7C243.4,319.159 238.258,319.159 233.158,319.7L230.636,331.05C225.754,331.866 220.988,333.266 216.44,335.218L208.182,327.034C203.6,329.336 199.273,332.116 195.276,335.328L199.29,346.24C195.624,349.566 192.371,353.32 189.601,357.421L178.229,355.001C175.619,359.415 173.482,364.093 171.856,368.957L181.132,375.966C179.847,380.745 179.14,385.662 179.027,390.61L168.152,394.722C168.342,399.847 169.074,404.937 170.335,409.908L181.928,410.789C183.431,415.505 185.494,420.024 188.074,424.247L181.148,433.586C184.079,437.794 187.447,441.681 191.195,445.181L201.425,439.655C205.238,442.809 209.417,445.495 213.871,447.653L213.093,459.254C217.834,461.21 222.768,462.658 227.814,463.576L233.432,453.397C238.346,453.989 243.313,453.989 248.227,453.397L253.844,463.576C258.89,462.658 263.824,461.21 268.565,459.254L267.788,447.653C272.242,445.495 276.42,442.809 280.234,439.655L290.463,445.181C294.212,441.681 297.579,437.794 300.51,433.586L293.584,424.247C296.164,420.024 298.228,415.505 299.73,410.789L311.323,409.908C312.585,404.937 313.316,399.847 313.507,394.722L302.632,390.61C302.519,385.662 301.812,380.745 300.526,375.966L309.802,368.957C308.176,364.093 306.04,359.415 303.429,355.001L292.057,357.421C289.287,353.32 286.034,349.566 282.369,346.24L286.383,335.328C282.385,332.116 278.059,329.336 273.476,327.034L265.218,335.218C260.67,333.266 255.904,331.866 251.023,331.05L248.5,319.7ZM240.829,366.616C254.851,366.616 266.235,378 266.235,392.022C266.235,406.045 254.851,417.429 240.829,417.429C226.807,417.429 215.423,406.045 215.423,392.022C215.423,378 226.807,366.616 240.829,366.616Z" style="fill:none;stroke:rgb(79,70,229);stroke-width:3.63px;"/>
        </g>
        <g transform="matrix(1,0,0,1,-16.1436,-4.26136)">
            <g transform="matrix(1.11942,-6.114e-17,6.114e-17,1.11942,239.77,-296.692)">
                <path d="M329.936,365.086C327.24,364.862 324.53,364.862 321.833,365.086L320.416,371.986C317.788,372.33 315.199,372.921 312.683,373.751L308.412,368.15C305.885,369.118 303.443,370.294 301.111,371.666L302.828,378.497C300.61,379.947 298.533,381.603 296.626,383.443L290.348,380.249C288.491,382.217 286.801,384.336 285.296,386.584L289.806,391.995C288.437,394.263 287.285,396.656 286.365,399.141L279.322,398.988C278.504,401.567 277.9,404.209 277.519,406.888L283.931,409.805C283.681,412.443 283.681,415.099 283.931,417.737L277.519,420.655C277.9,423.333 278.504,425.976 279.322,428.554L286.365,428.401C287.285,430.886 288.437,433.279 289.806,435.547L285.296,440.958C286.801,443.206 288.491,445.325 290.348,447.293L296.626,444.1C298.533,445.939 300.61,447.595 302.828,449.045L301.111,455.877C303.443,457.249 305.885,458.425 308.412,459.392L312.683,453.791C315.199,454.621 317.788,455.212 320.416,455.556L321.833,462.456C324.53,462.68 327.24,462.68 329.936,462.456L331.354,455.556C333.982,455.212 336.571,454.621 339.087,453.791L343.358,459.392C345.885,458.425 348.327,457.249 350.659,455.877L348.942,449.045C351.16,447.595 353.236,445.939 355.143,444.1L361.422,447.293C363.279,445.325 364.968,443.206 366.474,440.958L361.964,435.547C363.333,433.279 364.485,430.886 365.405,428.401L372.447,428.554C373.266,425.976 373.869,423.333 374.25,420.655L367.839,417.737C368.088,415.099 368.088,412.443 367.839,409.805L374.25,406.888C373.869,404.209 373.266,401.567 372.447,398.988L365.405,399.141C364.485,396.656 363.333,394.263 361.964,391.995L366.474,386.584C364.968,384.336 363.279,382.217 361.422,380.249L355.143,383.443C353.236,381.603 351.16,379.947 348.942,378.497L350.659,371.666C348.327,370.294 345.885,369.118 343.358,368.15L339.087,373.751C336.571,372.921 333.982,372.33 331.354,371.986L329.936,365.086ZM325.885,400.081C333.44,400.081 339.575,406.216 339.575,413.771C339.575,421.327 333.44,427.461 325.885,427.461C318.329,427.461 312.195,421.327 312.195,413.771C312.195,406.216 318.329,400.081 325.885,400.081Z" style="fill:white;stroke:rgb(79,70,229);stroke-width:3.57px;"/>
            </g>
        </g>
    </g>
</svg>
