<?xml version="1.0" encoding="UTF-8" standalone="no"?>
<!DOCTYPE svg PUBLIC "-//W3C//DTD SVG 1.1//EN" "http://www.w3.org/Graphics/SVG/1.1/DTD/svg11.dtd">
<svg width="100%" height="100%" viewBox="0 0 193 188" version="1.1" xmlns="http://www.w3.org/2000/svg" xmlns:xlink="http://www.w3.org/1999/xlink" xml:space="preserve" xmlns:serif="http://www.serif.com/" style="fill-rule:evenodd;clip-rule:evenodd;stroke-linecap:round;stroke-linejoin:round;stroke-miterlimit:1.5;">
    <g transform="matrix(1,0,0,1,-67.7653,-314.251)">
        <g transform="matrix(1,0,0,1,-16.1436,-4.26136)">
            <g transform="matrix(1,0,0,1,16.1436,4.26136)">
                <path d="M258.316,330.338C258.316,326.602 256.831,323.019 254.19,320.377C251.548,317.736 247.965,316.251 244.229,316.251C208.863,316.251 116.732,316.251 82.67,316.251C79.248,316.251 75.965,317.611 73.545,320.031C71.125,322.451 69.765,325.734 69.765,329.156L69.765,405.224C69.765,408.561 71.091,411.76 73.45,414.12C75.809,416.479 79.009,417.804 82.346,417.804C116.097,417.804 208.497,417.804 244.083,417.804C247.858,417.804 251.478,416.305 254.147,413.636C256.816,410.967 258.316,407.346 258.316,403.572C258.316,384.177 258.316,349.657 258.316,330.338Z" style="fill:white;stroke:rgb(79,70,229);stroke-width:4px;"/>
            </g>
        </g>
        <g transform="matrix(1,0,0,1,-16.1436,-4.26136)">
            <g transform="matrix(1,0,0,0.574233,16.1436,182.149)">
                <rect x="150.766" y="417.804" width="35.235" height="39.311" style="fill:white;stroke:rgb(79,70,229);stroke-width:4.91px;"/>
            </g>
        </g>
        <g transform="matrix(1,0,0,1,-16.1436,-4.26136)">
            <g transform="matrix(0.936365,0,0,1,11.0513,-12.2511)">
                <path d="M237.394,476.764C237.394,469.459 231.061,463.529 223.26,463.529L99.316,463.529C91.515,463.529 85.181,469.459 85.181,476.764L85.181,503.234C85.181,510.539 91.515,516.469 99.316,516.469L223.26,516.469C231.061,516.469 237.394,510.539 237.394,503.234L237.394,476.764Z" style="fill:white;stroke:rgb(79,70,229);stroke-width:4.13px;"/>
            </g>
        </g>
        <g transform="matrix(1,0,0,1,-16.1436,-4.26136)">
            <g transform="matrix(1,0,0,1,-13.0223,6.53321)">
                <path d="M287.481,457.246C287.481,453.221 284.214,449.954 280.19,449.954L265.607,449.954C261.583,449.954 258.316,453.221 258.316,457.246L258.316,482.255C258.316,486.28 261.583,489.547 265.607,489.547L280.19,489.547C284.214,489.547 287.481,486.28 287.481,482.255L287.481,457.246Z" style="fill:white;stroke:rgb(79,70,229);stroke-width:4px;"/>
            </g>
        </g>
        <g transform="matrix(1,0,0,1,-16.1436,-4.26136)">
            <g transform="matrix(1,0,0,1,-13.0223,6.53321)">
                <path d="M272.899,469.75L272.899,449.954" style="fill:none;stroke:rgb(79,70,229);stroke-width:4px;"/>
            </g>
        </g>
        <g transform="matrix(1,0,0,1,-16.1436,-4.26136)">
            <g transform="matrix(1,0,0,1,34.4949,-5.12437)">
                <path d="M89.455,464.554C89.455,463.213 88.366,462.124 87.025,462.124L82.165,462.124C80.824,462.124 79.735,463.213 79.735,464.554L79.735,469.592C79.735,470.934 80.824,472.022 82.165,472.022L87.025,472.022C88.366,472.022 89.455,470.934 89.455,469.592L89.455,464.554Z" style="fill:white;stroke:rgb(79,70,229);stroke-width:4px;"/>
            </g>
        </g>
        <g transform="matrix(1,0,0,1,-16.1436,-4.26136)">
            <g transform="matrix(1,0,0,1,18.7434,-5.04413)">
                <path d="M89.455,464.554C89.455,463.213 88.366,462.124 87.025,462.124L82.165,462.124C80.824,462.124 79.735,463.213 79.735,464.554L79.735,469.592C79.735,470.934 80.824,472.022 82.165,472.022L87.025,472.022C88.366,472.022 89.455,470.934 89.455,469.592L89.455,464.554Z" style="fill:white;stroke:rgb(79,70,229);stroke-width:4px;"/>
            </g>
        </g>
        <g transform="matrix(1,0,0,1,-16.1436,-4.26136)">
            <g transform="matrix(1,0,0,1,18.7434,26.4738)">
                <path d="M89.455,464.554C89.455,463.213 88.366,462.124 87.025,462.124L82.165,462.124C80.824,462.124 79.735,463.213 79.735,464.554L79.735,469.592C79.735,470.934 80.824,472.022 82.165,472.022L87.025,472.022C88.366,472.022 89.455,470.934 89.455,469.592L89.455,464.554Z" style="fill:white;stroke:rgb(79,70,229);stroke-width:4px;"/>
            </g>
        </g>
        <g transform="matrix(1,0,0,1,-16.1436,-4.26136)">
            <g transform="matrix(1,0,0,1,34.5933,10.8476)">
                <path d="M89.455,464.554C89.455,463.213 88.366,462.124 87.025,462.124L82.165,462.124C80.824,462.124 79.735,463.213 79.735,464.554L79.735,469.592C79.735,470.934 80.824,472.022 82.165,472.022L87.025,472.022C88.366,472.022 89.455,470.934 89.455,469.592L89.455,464.554Z" style="fill:white;stroke:rgb(79,70,229);stroke-width:4px;"/>
            </g>
        </g>
        <g transform="matrix(1,0,0,1,-16.1436,-4.26136)">
            <g transform="matrix(1,0,0,1,18.7434,10.6747)">
                <path d="M89.455,464.554C89.455,463.213 88.366,462.124 87.025,462.124L82.165,462.124C80.824,462.124 79.735,463.213 79.735,464.554L79.735,469.592C79.735,470.934 80.824,472.022 82.165,472.022L87.025,472.022C88.366,472.022 89.455,470.934 89.455,469.592L89.455,464.554Z" style="fill:white;stroke:rgb(79,70,229);stroke-width:4px;"/>
            </g>
        </g>
        <g transform="matrix(1,0,0,1,-16.1436,-4.26136)">
            <g transform="matrix(1,0,0,1,34.5933,26.4738)">
                <path d="M89.455,464.554C89.455,463.213 88.366,462.124 87.025,462.124L82.165,462.124C80.824,462.124 79.735,463.213 79.735,464.554L79.735,469.592C79.735,470.934 80.824,472.022 82.165,472.022L87.025,472.022C88.366,472.022 89.455,470.934 89.455,469.592L89.455,464.554Z" style="fill:white;stroke:rgb(79,70,229);stroke-width:4px;"/>
            </g>
        </g>
        <g transform="matrix(1,0,0,1,-16.1436,-4.26136)">
            <g transform="matrix(1,0,0,1,51.7762,26.4738)">
                <path d="M89.455,464.554C89.455,463.213 88.366,462.124 87.025,462.124L82.165,462.124C80.824,462.124 79.735,463.213 79.735,464.554L79.735,469.592C79.735,470.934 80.824,472.022 82.165,472.022L87.025,472.022C88.366,472.022 89.455,470.934 89.455,469.592L89.455,464.554Z" style="fill:white;stroke:rgb(79,70,229);stroke-width:4px;"/>
            </g>
        </g>
        <g transform="matrix(1,0,0,1,-16.1436,-4.26136)">
            <g transform="matrix(3.72185,0,0,1,-147.338,26.4738)">
                <path d="M89.455,464.599C89.455,463.233 89.157,462.124 88.79,462.124L80.4,462.124C80.033,462.124 79.735,463.233 79.735,464.599L79.735,469.548C79.735,470.914 80.033,472.022 80.4,472.022L88.79,472.022C89.157,472.022 89.455,470.914 89.455,469.548L89.455,464.599Z" style="fill:white;stroke:rgb(79,70,229);stroke-width:1.47px;"/>
            </g>
        </g>
        <g transform="matrix(1,0,0,1,-16.1436,-4.26136)">
            <g transform="matrix(1,0,0,1,86.3396,-5.12437)">
                <path d="M89.455,464.554C89.455,463.213 88.366,462.124 87.025,462.124L82.165,462.124C80.824,462.124 79.735,463.213 79.735,464.554L79.735,469.592C79.735,470.934 80.824,472.022 82.165,472.022L87.025,472.022C88.366,472.022 89.455,470.934 89.455,469.592L89.455,464.554Z" style="fill:white;stroke:rgb(79,70,229);stroke-width:4px;"/>
            </g>
        </g>
        <g transform="matrix(1,0,0,1,-16.1436,-4.26136)">
            <g transform="matrix(1,0,0,1,86.438,10.8476)">
                <path d="M89.455,464.554C89.455,463.213 88.366,462.124 87.025,462.124L82.165,462.124C80.824,462.124 79.735,463.213 79.735,464.554L79.735,469.592C79.735,470.934 80.824,472.022 82.165,472.022L87.025,472.022C88.366,472.022 89.455,470.934 89.455,469.592L89.455,464.554Z" style="fill:white;stroke:rgb(79,70,229);stroke-width:4px;"/>
            </g>
        </g>
        <g transform="matrix(1,0,0,1,-16.1436,-4.26136)">
            <g transform="matrix(1,0,0,1,68.5232,-5.12437)">
                <path d="M89.455,464.554C89.455,463.213 88.366,462.124 87.025,462.124L82.165,462.124C80.824,462.124 79.735,463.213 79.735,464.554L79.735,469.592C79.735,470.934 80.824,472.022 82.165,472.022L87.025,472.022C88.366,472.022 89.455,470.934 89.455,469.592L89.455,464.554Z" style="fill:white;stroke:rgb(79,70,229);stroke-width:4px;"/>
            </g>
        </g>
        <g transform="matrix(1,0,0,1,-16.1436,-4.26136)">
            <g transform="matrix(1,0,0,1,68.6216,10.8476)">
                <path d="M89.455,464.554C89.455,463.213 88.366,462.124 87.025,462.124L82.165,462.124C80.824,462.124 79.735,463.213 79.735,464.554L79.735,469.592C79.735,470.934 80.824,472.022 82.165,472.022L87.025,472.022C88.366,472.022 89.455,470.934 89.455,469.592L89.455,464.554Z" style="fill:white;stroke:rgb(79,70,229);stroke-width:4px;"/>
            </g>
        </g>
        <g transform="matrix(1,0,0,1,-16.1436,-4.26136)">
            <g transform="matrix(1,0,0,1,120.368,-5.12437)">
                <path d="M89.455,464.554C89.455,463.213 88.366,462.124 87.025,462.124L82.165,462.124C80.824,462.124 79.735,463.213 79.735,464.554L79.735,469.592C79.735,470.934 80.824,472.022 82.165,472.022L87.025,472.022C88.366,472.022 89.455,470.934 89.455,469.592L89.455,464.554Z" style="fill:white;stroke:rgb(79,70,229);stroke-width:4px;"/>
            </g>
        </g>
        <g transform="matrix(1,0,0,1,-16.1436,-4.26136)">
            <g transform="matrix(1,0,0,1,136.264,-5.04413)">
                <path d="M89.455,464.554C89.455,463.213 88.366,462.124 87.025,462.124L82.165,462.124C80.824,462.124 79.735,463.213 79.735,464.554L79.735,469.592C79.735,470.934 80.824,472.022 82.165,472.022L87.025,472.022C88.366,472.022 89.455,470.934 89.455,469.592L89.455,464.554Z" style="fill:white;stroke:rgb(79,70,229);stroke-width:4px;"/>
            </g>
        </g>
        <g transform="matrix(1,0,0,1,-16.1436,-4.26136)">
            <g transform="matrix(1,0,0,1,113.34,26.4738)">
                <path d="M89.455,464.554C89.455,463.213 88.366,462.124 87.025,462.124L82.165,462.124C80.824,462.124 79.735,463.213 79.735,464.554L79.735,469.592C79.735,470.934 80.824,472.022 82.165,472.022L87.025,472.022C88.366,472.022 89.455,470.934 89.455,469.592L89.455,464.554Z" style="fill:white;stroke:rgb(79,70,229);stroke-width:4px;"/>
            </g>
        </g>
        <g transform="matrix(1,0,0,1,-16.1436,-4.26136)">
            <g transform="matrix(1,0,0,1,130.75,26.4738)">
                <path d="M89.455,464.554C89.455,463.213 88.366,462.124 87.025,462.124L82.165,462.124C80.824,462.124 79.735,463.213 79.735,464.554L79.735,469.592C79.735,470.934 80.824,472.022 82.165,472.022L87.025,472.022C88.366,472.022 89.455,470.934 89.455,469.592L89.455,464.554Z" style="fill:white;stroke:rgb(79,70,229);stroke-width:4px;"/>
            </g>
        </g>
        <g transform="matrix(1,0,0,1,-16.1436,-4.26136)">
            <g transform="matrix(1,0,0,1,51.6778,-5.12437)">
                <path d="M89.455,464.554C89.455,463.213 88.366,462.124 87.025,462.124L82.165,462.124C80.824,462.124 79.735,463.213 79.735,464.554L79.735,469.592C79.735,470.934 80.824,472.022 82.165,472.022L87.025,472.022C88.366,472.022 89.455,470.934 89.455,469.592L89.455,464.554Z" style="fill:white;stroke:rgb(79,70,229);stroke-width:4px;"/>
            </g>
        </g>
        <g transform="matrix(1,0,0,1,-16.1436,-4.26136)">
            <g transform="matrix(1,0,0,1,51.7762,10.8476)">
                <path d="M89.455,464.554C89.455,463.213 88.366,462.124 87.025,462.124L82.165,462.124C80.824,462.124 79.735,463.213 79.735,464.554L79.735,469.592C79.735,470.934 80.824,472.022 82.165,472.022L87.025,472.022C88.366,472.022 89.455,470.934 89.455,469.592L89.455,464.554Z" style="fill:white;stroke:rgb(79,70,229);stroke-width:4px;"/>
            </g>
        </g>
        <g transform="matrix(1,0,0,1,-16.1436,-4.26136)">
            <g transform="matrix(1,0,0,1,103.522,-5.12437)">
                <path d="M89.455,464.554C89.455,463.213 88.366,462.124 87.025,462.124L82.165,462.124C80.824,462.124 79.735,463.213 79.735,464.554L79.735,469.592C79.735,470.934 80.824,472.022 82.165,472.022L87.025,472.022C88.366,472.022 89.455,470.934 89.455,469.592L89.455,464.554Z" style="fill:white;stroke:rgb(79,70,229);stroke-width:4px;"/>
            </g>
        </g>
        <g transform="matrix(1,0,0,1,-16.1436,-4.26136)">
            <g transform="matrix(1,0,0,1,103.621,10.8476)">
                <path d="M89.455,464.554C89.455,463.213 88.366,462.124 87.025,462.124L82.165,462.124C80.824,462.124 79.735,463.213 79.735,464.554L79.735,469.592C79.735,470.934 80.824,472.022 82.165,472.022L87.025,472.022C88.366,472.022 89.455,470.934 89.455,469.592L89.455,464.554Z" style="fill:white;stroke:rgb(79,70,229);stroke-width:4px;"/>
            </g>
        </g>
        <g transform="matrix(1,0,0,1,-16.1436,-4.26136)">
            <g transform="matrix(1,0,0,1,121.03,10.6747)">
                <path d="M89.455,464.554C89.455,463.213 88.366,462.124 87.025,462.124L82.165,462.124C80.824,462.124 79.735,463.213 79.735,464.554L79.735,469.592C79.735,470.934 80.824,472.022 82.165,472.022L87.025,472.022C88.366,472.022 89.455,470.934 89.455,469.592L89.455,464.554Z" style="fill:white;stroke:rgb(79,70,229);stroke-width:4px;"/>
            </g>
        </g>
        <g transform="matrix(1,0,0,1,-16.1436,-4.26136)">
            <g transform="matrix(1,0,0,1,136.264,10.6747)">
                <path d="M89.455,464.554C89.455,463.213 88.366,462.124 87.025,462.124L82.165,462.124C80.824,462.124 79.735,463.213 79.735,464.554L79.735,469.592C79.735,470.934 80.824,472.022 82.165,472.022L87.025,472.022C88.366,472.022 89.455,470.934 89.455,469.592L89.455,464.554Z" style="fill:white;stroke:rgb(79,70,229);stroke-width:4px;"/>
            </g>
        </g>
        <g transform="matrix(1,0,0,1,-16.1436,-4.26136)">
            <g transform="matrix(1,0,0,1.06582,15.2983,-22.4913)">
                <path d="M247.437,349.162C247.437,337.958 237.741,328.861 225.8,328.861L103.972,328.861C92.03,328.861 82.335,337.958 82.335,349.162L82.335,389.764C82.335,400.969 92.03,410.065 103.972,410.065L225.8,410.065C237.741,410.065 247.437,400.969 247.437,389.764L247.437,349.162Z" style="fill:white;stroke:rgb(79,70,229);stroke-width:3.87px;"/>
            </g>
        </g>
        <g transform="matrix(1,0,0,1,-16.1436,-4.26136)">
            <g transform="matrix(5.48601,0,0,5.81145,-389.629,-1625.51)">
                <text x="95.195px" y="347.892px" style="font-family:'ArialMT', 'Arial', sans-serif;font-size:12px;fill:rgb(79,70,229);">&lt;/&gt;</text>
            </g>
        </g>
    </g>
</svg>
